<?xml version="1.0" encoding="UTF-8"?>
<svg width="160" height="35" viewBox="0 0 160 35" fill="none" xmlns="http://www.w3.org/2000/svg">
  <path d="M25 10C25 7.8 26.6 6 28.8 6C31 6 32.7 7.6 32.7 9.8C32.7 12 31 13.7 28.8 13.7H25V10Z" fill="#4285F4"/>
  <path d="M30 17.5C33.3 17.5 36 14.8 36 11.5C36 8.2 33.3 5.5 30 5.5C26.7 5.5 24 8.2 24 11.5V17.5H30Z" fill="#34A853"/>
  <path d="M30 30C33.9 30 37 26.9 37 23V10H24V23C24 26.9 26.1 30 30 30Z" fill="#FBBC05"/>
  <path d="M30 30C26.1 30 24 26.9 24 23V17.5H30C33.3 17.5 36 20.2 36 23.5C36 26.8 33.3 29.5 30 29.5V30Z" fill="#EA4335"/>
  <text x="45" y="25" font-family="Arial" font-size="24" font-weight="bold" fill="#333">Google Cloud</text>
</svg>
